<mxfile host="Electron" modified="2024-03-28T16:28:50.392Z" agent="Mozilla/5.0 (Windows NT 10.0; Win64; x64) AppleWebKit/537.36 (KHTML, like Gecko) draw.io/24.0.4 Chrome/120.0.6099.109 Electron/28.1.0 Safari/537.36" etag="GqinphgM3cp3MAuKSBoM" version="24.0.4" type="device">
  <diagram id="wFE0QG_FPsp0jaGvCLVb" name="Page-1">
    <mxGraphModel dx="2330" dy="893" grid="1" gridSize="10" guides="1" tooltips="1" connect="1" arrows="1" fold="1" page="1" pageScale="1" pageWidth="850" pageHeight="1100" math="0" shadow="0">
      <root>
        <mxCell id="0" />
        <mxCell id="1" parent="0" />
        <mxCell id="zBPbo1Esfqf1nifulLld-1" value="Продукция" style="swimlane;" vertex="1" parent="1">
          <mxGeometry x="20" y="570" width="370" height="200" as="geometry" />
        </mxCell>
        <mxCell id="zBPbo1Esfqf1nifulLld-8" value="Онлайн касса&lt;br&gt;&lt;br&gt;&lt;br&gt;Back&lt;br&gt;(HomeR)" style="rounded=0;whiteSpace=wrap;html=1;fillColor=#dae8fc;strokeColor=#6c8ebf;" vertex="1" parent="zBPbo1Esfqf1nifulLld-1">
          <mxGeometry x="20" y="40" width="150" height="150" as="geometry" />
        </mxCell>
        <mxCell id="zBPbo1Esfqf1nifulLld-9" value="Онлайн-склад&lt;br&gt;&lt;br&gt;&lt;br&gt;Back&lt;br&gt;(TW CMS)" style="rounded=0;whiteSpace=wrap;html=1;fillColor=#dae8fc;strokeColor=#6c8ebf;" vertex="1" parent="zBPbo1Esfqf1nifulLld-1">
          <mxGeometry x="200" y="40" width="140" height="150" as="geometry" />
        </mxCell>
        <mxCell id="zBPbo1Esfqf1nifulLld-11" value="Финансы" style="swimlane;" vertex="1" parent="1">
          <mxGeometry x="400" y="530" width="200" height="240" as="geometry" />
        </mxCell>
        <mxCell id="zBPbo1Esfqf1nifulLld-12" value="АБС&lt;br&gt;&lt;br&gt;(Кворум)" style="rounded=0;whiteSpace=wrap;html=1;fillColor=#dae8fc;strokeColor=#6c8ebf;" vertex="1" parent="zBPbo1Esfqf1nifulLld-11">
          <mxGeometry x="30" y="40" width="140" height="150" as="geometry" />
        </mxCell>
        <mxCell id="zBPbo1Esfqf1nifulLld-14" value="процессинг" style="swimlane;" vertex="1" parent="1">
          <mxGeometry x="-360" y="570" width="370" height="200" as="geometry" />
        </mxCell>
        <mxCell id="zBPbo1Esfqf1nifulLld-16" value="3 DS" style="rounded=0;whiteSpace=wrap;html=1;fillColor=#dae8fc;strokeColor=#6c8ebf;" vertex="1" parent="zBPbo1Esfqf1nifulLld-14">
          <mxGeometry x="30" y="120" width="110" height="80" as="geometry" />
        </mxCell>
        <mxCell id="zBPbo1Esfqf1nifulLld-17" value="Карточный процессинг&lt;br&gt;&lt;br&gt;(TWO)" style="rounded=0;whiteSpace=wrap;html=1;fillColor=#dae8fc;strokeColor=#6c8ebf;" vertex="1" parent="zBPbo1Esfqf1nifulLld-14">
          <mxGeometry x="30" y="30" width="320" height="80" as="geometry" />
        </mxCell>
        <mxCell id="zBPbo1Esfqf1nifulLld-18" value="e-commerce" style="rounded=0;whiteSpace=wrap;html=1;fillColor=#dae8fc;strokeColor=#6c8ebf;" vertex="1" parent="zBPbo1Esfqf1nifulLld-14">
          <mxGeometry x="240" y="120" width="110" height="80" as="geometry" />
        </mxCell>
        <mxCell id="zBPbo1Esfqf1nifulLld-20" value="каналы обслуживания" style="swimlane;" vertex="1" parent="1">
          <mxGeometry x="-160" y="300" width="560" height="220" as="geometry" />
        </mxCell>
        <mxCell id="zBPbo1Esfqf1nifulLld-26" value="Сервисы&lt;br&gt;(Dekstop - приложение,&lt;br&gt;облако.&lt;br&gt;мобильное приложеие онлайн-кассы" style="rounded=0;whiteSpace=wrap;html=1;fillColor=#dae8fc;strokeColor=#6c8ebf;direction=south;" vertex="1" parent="zBPbo1Esfqf1nifulLld-20">
          <mxGeometry x="290" y="30" width="80" height="190" as="geometry" />
        </mxCell>
        <mxCell id="zBPbo1Esfqf1nifulLld-27" value="Офисы и call=центры&lt;br&gt;(UFO)" style="rounded=0;whiteSpace=wrap;html=1;fillColor=#dae8fc;strokeColor=#6c8ebf;" vertex="1" parent="zBPbo1Esfqf1nifulLld-20">
          <mxGeometry y="30" width="110" height="70" as="geometry" />
        </mxCell>
        <mxCell id="zBPbo1Esfqf1nifulLld-28" value="Чат боты&lt;br&gt;(Микросервисы)" style="rounded=0;whiteSpace=wrap;html=1;fillColor=#dae8fc;strokeColor=#6c8ebf;" vertex="1" parent="zBPbo1Esfqf1nifulLld-20">
          <mxGeometry x="150" y="30" width="110" height="70" as="geometry" />
        </mxCell>
        <mxCell id="zBPbo1Esfqf1nifulLld-29" value="Экваринг&lt;br&gt;(банк-партнер)" style="rounded=0;whiteSpace=wrap;html=1;fillColor=#dae8fc;strokeColor=#6c8ebf;" vertex="1" parent="zBPbo1Esfqf1nifulLld-20">
          <mxGeometry y="120" width="110" height="70" as="geometry" />
        </mxCell>
        <mxCell id="zBPbo1Esfqf1nifulLld-30" value="Облачные прилежения(&lt;br&gt;Cloud-разработка)" style="rounded=0;whiteSpace=wrap;html=1;fillColor=#dae8fc;strokeColor=#6c8ebf;" vertex="1" parent="zBPbo1Esfqf1nifulLld-20">
          <mxGeometry x="150" y="120" width="110" height="70" as="geometry" />
        </mxCell>
        <mxCell id="zBPbo1Esfqf1nifulLld-31" value="Подписки&lt;br&gt;(разные уроки подписок с расширением функционала)" style="rounded=0;whiteSpace=wrap;html=1;fillColor=#dae8fc;strokeColor=#6c8ebf;direction=west;" vertex="1" parent="zBPbo1Esfqf1nifulLld-20">
          <mxGeometry x="390" y="30" width="170" height="190" as="geometry" />
        </mxCell>
        <mxCell id="zBPbo1Esfqf1nifulLld-32" value="Мастер данных" style="swimlane;" vertex="1" parent="1">
          <mxGeometry x="-360" y="300" width="190" height="220" as="geometry" />
        </mxCell>
        <mxCell id="zBPbo1Esfqf1nifulLld-35" value="Справочники и документация&lt;br&gt;(Микросервисы)" style="whiteSpace=wrap;html=1;fillColor=#dae8fc;strokeColor=#6c8ebf;" vertex="1" parent="zBPbo1Esfqf1nifulLld-32">
          <mxGeometry x="30" y="140" width="120" height="60" as="geometry" />
        </mxCell>
        <mxCell id="zBPbo1Esfqf1nifulLld-34" value="Клиент&lt;br&gt;(CIF)" style="whiteSpace=wrap;html=1;fillColor=#dae8fc;strokeColor=#6c8ebf;" vertex="1" parent="1">
          <mxGeometry x="-330" y="340" width="120" height="60" as="geometry" />
        </mxCell>
        <mxCell id="zBPbo1Esfqf1nifulLld-37" value="Сервисы и процессы" style="swimlane;" vertex="1" parent="1">
          <mxGeometry x="610" y="530" width="350" height="280" as="geometry" />
        </mxCell>
        <mxCell id="zBPbo1Esfqf1nifulLld-39" value="SMS-push&lt;br&gt;(SMSGate)" style="rounded=0;whiteSpace=wrap;html=1;fillColor=#dae8fc;strokeColor=#6c8ebf;" vertex="1" parent="zBPbo1Esfqf1nifulLld-37">
          <mxGeometry y="30" width="110" height="70" as="geometry" />
        </mxCell>
        <mxCell id="zBPbo1Esfqf1nifulLld-40" value="B2B CRM" style="rounded=0;whiteSpace=wrap;html=1;fillColor=#dae8fc;strokeColor=#6c8ebf;" vertex="1" parent="zBPbo1Esfqf1nifulLld-37">
          <mxGeometry x="120" y="30" width="110" height="70" as="geometry" />
        </mxCell>
        <mxCell id="zBPbo1Esfqf1nifulLld-41" value="Обращение пользователей&lt;br&gt;(Отклик)" style="rounded=0;whiteSpace=wrap;html=1;fillColor=#dae8fc;strokeColor=#6c8ebf;" vertex="1" parent="zBPbo1Esfqf1nifulLld-37">
          <mxGeometry y="120" width="110" height="70" as="geometry" />
        </mxCell>
        <mxCell id="zBPbo1Esfqf1nifulLld-42" value="Учет МФО&lt;br&gt;(1с)" style="rounded=0;whiteSpace=wrap;html=1;fillColor=#dae8fc;strokeColor=#6c8ebf;" vertex="1" parent="zBPbo1Esfqf1nifulLld-37">
          <mxGeometry x="120" y="120" width="110" height="70" as="geometry" />
        </mxCell>
        <mxCell id="zBPbo1Esfqf1nifulLld-44" value="Лояльность&lt;br&gt;(Manzana)" style="rounded=0;whiteSpace=wrap;html=1;fillColor=#dae8fc;strokeColor=#6c8ebf;" vertex="1" parent="zBPbo1Esfqf1nifulLld-37">
          <mxGeometry x="240" y="30" width="110" height="70" as="geometry" />
        </mxCell>
        <mxCell id="zBPbo1Esfqf1nifulLld-45" value="Подключение экваринга" style="rounded=0;whiteSpace=wrap;html=1;fillColor=#dae8fc;strokeColor=#6c8ebf;" vertex="1" parent="zBPbo1Esfqf1nifulLld-37">
          <mxGeometry x="240" y="120" width="110" height="70" as="geometry" />
        </mxCell>
        <mxCell id="zBPbo1Esfqf1nifulLld-46" value="Хоз учет&lt;br&gt;(SAP ERP)" style="rounded=0;whiteSpace=wrap;html=1;fillColor=#dae8fc;strokeColor=#6c8ebf;" vertex="1" parent="zBPbo1Esfqf1nifulLld-37">
          <mxGeometry y="210" width="110" height="70" as="geometry" />
        </mxCell>
        <mxCell id="zBPbo1Esfqf1nifulLld-55" value="Сделки&amp;nbsp;&lt;br&gt;(R style)" style="rounded=0;whiteSpace=wrap;html=1;fillColor=#dae8fc;strokeColor=#6c8ebf;" vertex="1" parent="zBPbo1Esfqf1nifulLld-37">
          <mxGeometry x="120" y="210" width="110" height="70" as="geometry" />
        </mxCell>
        <mxCell id="zBPbo1Esfqf1nifulLld-56" value="Внесение поставок&amp;nbsp;&lt;br&gt;(CRM)" style="rounded=0;whiteSpace=wrap;html=1;fillColor=#dae8fc;strokeColor=#6c8ebf;" vertex="1" parent="zBPbo1Esfqf1nifulLld-37">
          <mxGeometry x="240" y="210" width="110" height="70" as="geometry" />
        </mxCell>
        <mxCell id="zBPbo1Esfqf1nifulLld-57" value="" style="rounded=1;whiteSpace=wrap;html=1;" vertex="1" parent="1">
          <mxGeometry y="810" width="600" height="70" as="geometry" />
        </mxCell>
        <mxCell id="zBPbo1Esfqf1nifulLld-58" value="DWH&lt;br&gt;(NOSQL)" style="shape=cylinder3;whiteSpace=wrap;html=1;boundedLbl=1;backgroundOutline=1;size=15;fillColor=#dae8fc;strokeColor=#6c8ebf;" vertex="1" parent="1">
          <mxGeometry x="175" y="810" width="60" height="70" as="geometry" />
        </mxCell>
        <mxCell id="zBPbo1Esfqf1nifulLld-59" value="BigData&lt;br&gt;(Postgre&lt;br&gt;SQL)" style="shape=cylinder3;whiteSpace=wrap;html=1;boundedLbl=1;backgroundOutline=1;size=15;fillColor=#dae8fc;strokeColor=#6c8ebf;" vertex="1" parent="1">
          <mxGeometry x="270" y="810" width="60" height="70" as="geometry" />
        </mxCell>
        <mxCell id="zBPbo1Esfqf1nifulLld-60" value="СКЛАД&lt;br&gt;(NoSQL)" style="shape=cylinder3;whiteSpace=wrap;html=1;boundedLbl=1;backgroundOutline=1;size=15;fillColor=#dae8fc;strokeColor=#6c8ebf;" vertex="1" parent="1">
          <mxGeometry x="360" y="810" width="60" height="70" as="geometry" />
        </mxCell>
        <mxCell id="zBPbo1Esfqf1nifulLld-61" value="Микросервисы" style="swimlane;" vertex="1" parent="1">
          <mxGeometry x="420" y="300" width="350" height="220" as="geometry" />
        </mxCell>
        <mxCell id="zBPbo1Esfqf1nifulLld-64" value="Маршутизация платежа" style="rounded=0;whiteSpace=wrap;html=1;fillColor=#dae8fc;strokeColor=#6c8ebf;" vertex="1" parent="zBPbo1Esfqf1nifulLld-61">
          <mxGeometry y="30" width="110" height="40" as="geometry" />
        </mxCell>
        <mxCell id="zBPbo1Esfqf1nifulLld-65" value="On-line" style="rounded=0;whiteSpace=wrap;html=1;fillColor=#dae8fc;strokeColor=#6c8ebf;" vertex="1" parent="zBPbo1Esfqf1nifulLld-61">
          <mxGeometry x="120" y="30" width="110" height="40" as="geometry" />
        </mxCell>
        <mxCell id="zBPbo1Esfqf1nifulLld-67" value="Подключение экваринга" style="rounded=0;whiteSpace=wrap;html=1;fillColor=#dae8fc;strokeColor=#6c8ebf;" vertex="1" parent="zBPbo1Esfqf1nifulLld-61">
          <mxGeometry x="240" y="30" width="110" height="40" as="geometry" />
        </mxCell>
        <mxCell id="zBPbo1Esfqf1nifulLld-71" value="payment" style="rounded=0;whiteSpace=wrap;html=1;fillColor=#dae8fc;strokeColor=#6c8ebf;" vertex="1" parent="zBPbo1Esfqf1nifulLld-61">
          <mxGeometry x="120" y="90" width="110" height="40" as="geometry" />
        </mxCell>
        <mxCell id="zBPbo1Esfqf1nifulLld-72" value="Списание и внесение товара&lt;br&gt;на складе" style="rounded=0;whiteSpace=wrap;html=1;fillColor=#dae8fc;strokeColor=#6c8ebf;" vertex="1" parent="zBPbo1Esfqf1nifulLld-61">
          <mxGeometry y="90" width="110" height="40" as="geometry" />
        </mxCell>
        <mxCell id="zBPbo1Esfqf1nifulLld-73" value="Выписка и проверка накладных" style="rounded=0;whiteSpace=wrap;html=1;fillColor=#dae8fc;strokeColor=#6c8ebf;" vertex="1" parent="zBPbo1Esfqf1nifulLld-61">
          <mxGeometry x="240" y="90" width="110" height="40" as="geometry" />
        </mxCell>
        <mxCell id="zBPbo1Esfqf1nifulLld-74" value="Система подписок" style="rounded=0;whiteSpace=wrap;html=1;fillColor=#dae8fc;strokeColor=#6c8ebf;" vertex="1" parent="zBPbo1Esfqf1nifulLld-61">
          <mxGeometry y="150" width="110" height="40" as="geometry" />
        </mxCell>
        <mxCell id="zBPbo1Esfqf1nifulLld-75" value="Внесение и удаление товаров в онлайн-кассе. Расчет позиции" style="rounded=0;whiteSpace=wrap;html=1;fillColor=#dae8fc;strokeColor=#6c8ebf;" vertex="1" parent="zBPbo1Esfqf1nifulLld-61">
          <mxGeometry x="120" y="150" width="110" height="40" as="geometry" />
        </mxCell>
        <mxCell id="zBPbo1Esfqf1nifulLld-76" value="Схема зала" style="rounded=0;whiteSpace=wrap;html=1;fillColor=#dae8fc;strokeColor=#6c8ebf;" vertex="1" parent="zBPbo1Esfqf1nifulLld-61">
          <mxGeometry x="240" y="150" width="110" height="40" as="geometry" />
        </mxCell>
        <mxCell id="zBPbo1Esfqf1nifulLld-77" value="Интеграционаая шина(NoSQL Service Bus)" style="rounded=0;whiteSpace=wrap;html=1;fillColor=#dae8fc;strokeColor=#6c8ebf;" vertex="1" parent="1">
          <mxGeometry x="-360" y="530" width="750" height="40" as="geometry" />
        </mxCell>
        <mxCell id="zBPbo1Esfqf1nifulLld-78" value="ETL( Apache Kafka)" style="rounded=0;whiteSpace=wrap;html=1;fillColor=#dae8fc;strokeColor=#6c8ebf;" vertex="1" parent="1">
          <mxGeometry x="-360" y="770" width="960" height="40" as="geometry" />
        </mxCell>
        <mxCell id="zBPbo1Esfqf1nifulLld-79" value="Внешние потребители" style="swimlane;" vertex="1" parent="1">
          <mxGeometry x="-360" y="810" width="350" height="70" as="geometry" />
        </mxCell>
        <mxCell id="zBPbo1Esfqf1nifulLld-80" value="Партнеры" style="rounded=0;whiteSpace=wrap;html=1;fillColor=#dae8fc;strokeColor=#6c8ebf;" vertex="1" parent="zBPbo1Esfqf1nifulLld-79">
          <mxGeometry y="30" width="110" height="40" as="geometry" />
        </mxCell>
        <mxCell id="zBPbo1Esfqf1nifulLld-81" value="Блогерры" style="rounded=0;whiteSpace=wrap;html=1;fillColor=#dae8fc;strokeColor=#6c8ebf;" vertex="1" parent="zBPbo1Esfqf1nifulLld-79">
          <mxGeometry x="120" y="30" width="110" height="40" as="geometry" />
        </mxCell>
        <mxCell id="zBPbo1Esfqf1nifulLld-82" value="ФНС" style="rounded=0;whiteSpace=wrap;html=1;fillColor=#dae8fc;strokeColor=#6c8ebf;" vertex="1" parent="zBPbo1Esfqf1nifulLld-79">
          <mxGeometry x="240" y="30" width="110" height="40" as="geometry" />
        </mxCell>
      </root>
    </mxGraphModel>
  </diagram>
</mxfile>
